<svg width="540" height="538" viewBox="0 0 540 538" fill="none" xmlns="http://www.w3.org/2000/svg">
<path d="M125.061 0.0722656C86.0761 9.94948 75.2429 20.4898 68.4336 44.9721L90.8891 470.545H505.828C531.631 456.768 539.548 436.243 540 372.936C527.19 245.9 511.558 173.486 488.254 44.9721C476.504 27.156 473.95 15.26 427.722 13.7374L125.061 0.0722656Z" fill="#F7830D"/>
<path d="M0 419.584L46.6513 68.9983C57.8153 42.5511 67.7632 30.4325 100.767 16.7834C205.065 7.00519 289.546 4.91847 431.058 0C467.529 10.9479 489.404 16.8086 507.566 68.9983C511.897 210.411 516.456 311.336 515.963 403.733C514.473 444.786 505.33 461.123 473.044 477.393C277.393 513.263 170.326 532.601 78.3742 538C22.9242 520.747 0.40683 496.95 0 419.584Z" fill="#124C5F"/>
</svg>
